<svg width="760" height="502" viewBox="0 0 760 502" fill="none" xmlns="http://www.w3.org/2000/svg">
<rect width="760" height="502" fill="#F9F8F2"/>
<path d="M354.982 245.517C369.197 245.543 378.023 251.593 378.023 261.732C378.023 273.192 366.996 288.111 347.753 302.598C326.78 318.814 295.645 332.003 258.023 332.003C251.969 332.003 246.996 331.57 242.455 330.489C234.455 346.705 230.131 362.49 230.131 375.679C230.131 391.246 237.266 399.894 250.455 399.895C284.833 399.895 300.834 367.462 300.186 350.813C299.537 335.895 280.077 342.165 275.969 358.813H274.239C275.753 346.922 287.429 339.57 296.51 339.57C329.59 339.571 299.969 402.273 250.239 402.273C229.05 402.273 217.374 391.246 217.374 371.139C217.374 357.517 222.348 342.165 231.429 326.813C222.564 322.273 217.374 315.138 217.374 307.139C217.374 293.085 233.374 277.949 262.131 277.949C266.888 277.949 270.996 278.165 274.888 278.813C286.78 269.949 299.753 262.165 313.158 256.111C323.753 251.571 333.05 248.544 341.05 247.03C345.764 245.959 350.479 245.524 354.982 245.517ZM665.188 242.273C679.89 242.273 697.62 247.463 697.62 259.787C697.62 264.111 695.242 269.084 691.134 274.489L690.053 274.058V272.111C691.35 269.301 691.998 266.706 691.998 264.544C691.998 253.085 678.593 245.517 666.269 245.517C655.025 245.517 644.431 249.625 634.269 256.327C649.403 258.273 658.701 264.544 658.701 273.408C658.701 277.732 656.323 282.706 652.215 288.111L651.134 287.679V285.732C652.431 282.922 653.079 280.327 653.079 278.165C653.079 267.571 641.62 260.22 629.944 259.139C600.107 280.977 574.16 324.003 551.674 354.273C538.485 371.786 527.242 386.056 527.241 389.732C527.241 390.381 527.458 390.382 527.891 390.382C535.242 390.381 555.566 371.57 570.484 350.813H570.53C581.8 334.826 598.845 320.544 613.303 320.544C619.357 320.544 623.033 324.22 623.033 330.058C623.033 337.625 616.547 349.95 605.952 362.706C612.871 362.057 619.141 357.733 625.195 350.598H627.79C620.223 360.327 612.655 365.084 603.79 365.301C590.168 381.517 574.6 393.192 566.168 393.192C559.249 393.192 558.168 384.111 558.168 381.084C558.168 376.207 559.82 370.368 562.652 364.268C549.835 379.201 535.112 392.327 528.106 392.327C524.647 392.327 522.269 389.517 522.269 385.192C522.269 381.949 523.782 377.841 527.025 372.436C515.35 384.976 505.188 392.327 499.782 392.327C496.323 392.327 493.944 389.517 493.944 385.192C493.944 381.382 496.33 376.248 500.04 370.328C487.788 382.799 474.942 392.327 468.997 392.327C465.538 392.327 463.159 389.3 463.159 384.976C463.159 381.834 464.78 377.793 467.428 373.153C456.993 384.036 446.628 392.327 441.088 392.327C437.628 392.327 435.25 389.3 435.25 384.976C435.25 379.543 440.096 371.419 446.724 362.164C440.814 367.327 434.671 371.473 428.291 374.598C424.183 385.192 412.724 392.976 401.48 392.976C383.319 392.975 381.805 369.409 401.265 372.868C406.886 373.733 411.643 376.76 415.318 376.111C417.48 372.22 419.427 367.895 420.508 363.787C423.319 352.976 420.292 340.867 422.454 328.976C417.96 335.512 411.922 343.399 406.164 350.813H406.379C391.676 371.354 367.46 392.327 358.595 392.327C355.135 392.327 352.757 389.517 352.757 385.192C352.757 381.517 354.919 376.543 359.46 369.408C346.271 383.03 333.73 392.976 328.324 392.976C321.406 392.975 320.541 383.895 320.541 380.868C320.541 359.247 349.081 320.76 375.676 320.76C381.73 320.76 385.189 324.003 385.189 329.408C385.189 331.354 384.54 334.165 383.243 337.192L396.433 319.679C397.297 323.571 403.568 322.273 407.46 317.732H409.189C400.973 329.408 390.811 342.598 382.162 354.273C368.973 371.786 357.73 386.056 357.729 389.732C357.729 390.381 357.946 390.382 358.379 390.382C365.988 390.381 388.678 370.959 402.619 352.111H402.562C412.94 338.706 418.346 331.571 423.103 323.787C426.13 317.949 424.832 311.462 428.724 309.732C431.751 308.651 434.13 310.814 433.697 314.058C433.481 317.084 428.291 319.679 425.48 323.57C420.291 339.138 431.751 351.463 430.021 368.111L429.373 371.787C437.373 367.679 446.237 360.976 455.318 350.598H455.35C456.497 349.094 457.655 347.579 458.817 346.058C461.412 342.814 466.818 335.462 472.872 327.246C476.548 321.841 481.088 314.921 481.088 310.813C481.088 308.219 479.791 306.922 476.548 306.922H476.331C475.034 306.489 474.602 306.057 474.602 305.408C474.602 304.327 475.899 303.679 477.196 303.679C480.007 303.679 481.305 303.895 484.115 303.895C486.061 304.111 488.007 304.111 489.736 304.111C494.061 298.706 497.521 293.733 500.115 289.841C500.98 291.57 501.845 292.22 503.574 292.22C506.169 292.22 509.629 290.057 511.791 287.463L512.655 288.327C510.493 291.57 506.385 297.192 501.412 304.111C503.358 303.895 504.871 303.895 506.385 303.895C508.763 303.678 511.142 303.463 513.736 303.463C514.601 303.463 515.683 304.111 515.683 305.192C515.683 306.057 514.817 306.706 513.736 306.706H507.898C505.304 306.706 503.358 306.705 499.683 306.489L464.655 354.057C451.466 371.57 440.223 385.841 440.223 389.517C440.223 390.165 440.44 390.165 440.872 390.165C447.029 390.165 462.285 376.968 475.845 360.485C479.207 355.865 482.956 350.994 486.727 346.058C493.213 337.193 495.808 334.166 506.835 319.463C507.7 323.354 513.97 322.057 517.861 317.517H519.591C511.375 329.192 501.213 342.381 492.564 354.057C479.375 371.57 468.132 385.841 468.132 389.517C468.132 390.165 468.348 390.165 468.78 390.165C476.564 390.165 500.132 369.841 513.97 350.598H514.209C515.302 349.165 516.405 347.722 517.512 346.273C552.539 300.436 568.972 258.706 621.296 256.111C635.35 246.814 649.836 242.489 665.403 242.489L665.188 242.273ZM613.52 322.706C597.736 322.706 564.223 375.462 564.223 388.651C564.223 390.381 564.871 391.03 565.952 391.03C574.168 391.03 588.439 378.922 600.547 365.084C592.979 362.489 598.6 348.436 607.897 348.436C609.411 348.436 610.925 349.084 611.79 350.165C617.628 341.517 620.871 334.166 620.871 329.625C620.871 325.301 618.276 322.706 613.52 322.706ZM377.189 323.57C372.433 323.57 365.73 327.03 360.108 332.436C352.757 339.787 344.541 350.381 338.055 361.408C330.92 373.084 326.595 383.03 326.595 388.436C326.595 390.165 327.243 390.813 328.324 390.813C338.919 390.813 383.027 345.409 383.027 329.625C383.027 325.517 381.081 323.57 377.189 323.57ZM615.674 260.003C576.971 268.219 552.106 315.786 523.565 354.057C510.376 371.57 499.134 385.841 499.134 389.517C499.134 390.165 499.35 390.165 499.782 390.165C507.134 390.165 527.241 371.57 542.16 350.813C543.457 349.3 544.539 347.571 545.836 346.058H546.053C569.62 315.139 589.295 280.543 615.674 260.003ZM401.048 375.03C388.724 372.869 386.346 389.949 398.237 389.949C403.859 389.949 409.48 385.625 413.805 378.273C409.913 378.273 405.804 375.895 401.048 375.03ZM356.834 248.111C347.104 248.111 335.212 250.706 322.672 255.679C308.618 261.084 295.212 269.301 282.455 280.111C301.049 284.652 316.617 294.165 324.617 306.489L323.536 307.787C315.104 295.03 299.32 285.733 280.077 281.841C264.942 295.462 252.185 311.679 243.32 328.544C247.861 329.409 252.834 330.058 258.239 330.058C289.374 330.058 319.861 314.705 341.482 297.408C357.05 284.868 366.131 273.841 369.807 265.408H370.023C371.321 262.598 371.969 259.787 371.969 257.841C371.969 251.354 366.996 248.111 356.834 248.111ZM263.212 280.327C235.104 280.327 220.186 296.111 220.186 308.436C220.186 315.138 224.726 321.192 232.726 324.868C242.239 309.084 256.077 293.949 272.293 280.76C269.266 280.544 266.239 280.327 263.212 280.327ZM483.898 306.706C483.25 306.706 482.385 306.922 481.736 306.922C482.817 307.787 483.466 309.084 483.466 310.598C483.466 311.463 483.25 312.544 483.034 313.625L488.223 306.706H483.898ZM520.456 294.598C522.402 290.706 526.077 287.895 528.672 288.327C531.915 288.543 532.78 292.003 530.834 296.111C528.888 300.003 525.429 302.598 522.618 302.382C519.591 302.166 518.726 298.49 520.456 294.598ZM184.147 100C212.039 100 236.904 116.433 263.066 116.433C277.337 116.433 291.391 113.19 306.31 106.703L307.174 108.433C291.174 115.135 276.904 118.379 262.85 118.379C236.255 118.379 211.607 106.703 183.715 106.703C136.147 106.703 119.066 131.784 119.066 149.946C119.066 156.217 121.661 162.487 125.985 167.244C141.985 156.866 159.931 151.46 179.174 151.46C196.471 151.46 205.985 158.163 205.985 170.487C205.985 190.595 177.444 220 143.282 220C133.553 220 125.12 214.163 124.255 206.379H125.769C126.85 211.136 133.553 213.73 143.282 213.73C176.796 213.73 203.823 187.568 203.823 169.622C203.823 159.46 195.174 153.622 179.174 153.622C161.012 153.622 143.498 159.028 127.931 168.974C134.85 175.244 145.228 178.487 158.201 178.487C163.39 178.487 168.364 178.054 173.985 176.757V178.487C164.256 181.298 154.741 181.73 152.579 181.73C140.687 181.73 131.174 178.271 124.688 171.136C104.58 185.19 90.958 206.163 90.958 223.46C90.9581 239.244 102.201 248.108 122.525 248.108C157.552 248.108 193.444 224.757 225.012 196.433C227.822 191.892 229.336 187.136 229.336 183.46C229.336 180.217 228.255 178.055 225.66 176.974C224.795 176.974 223.498 177.189 222.201 177.189C221.12 177.189 219.822 176.541 219.822 175.46C219.822 174.379 221.12 173.731 222.417 173.73C226.309 173.73 229.12 173.946 231.715 173.946C233.877 174.162 237.769 174.162 242.31 174.162H248.579C283.822 138.703 310.2 103.677 317.984 103.676C320.363 103.676 322.093 105.622 322.093 108.217C322.092 125.947 252.904 214.595 244.039 235.568H262.85C262.417 237.081 262.201 237.298 262.417 237.73L261.769 238.595H222.634L222.201 237.514C222.417 237.081 222.417 236.865 222.201 236.433L222.85 235.568H239.498C238.849 234.055 238.633 232.541 238.85 231.027C240.579 220 250.309 202.054 268.255 176.757H263.282C259.607 176.757 255.066 176.757 250.31 176.541C212.256 216.973 164.039 259.351 120.796 259.352C98.7419 259.352 85.9854 248.324 85.9854 229.514C85.9855 209.189 101.12 184.757 123.391 169.189C119.283 164 117.12 157.514 117.12 150.379C117.12 129.622 136.364 100 184.147 100ZM399.767 117.73C391.766 129.407 347.875 189.082 339.442 200.541C326.254 218.054 315.01 232.324 315.01 236C315.01 236.564 315.174 236.637 315.501 236.646C322.901 236.548 343.158 217.783 358.037 197.081H358.313C369.401 182.717 372.75 177.48 375.69 172.649C378.069 167.46 376.556 165.514 376.556 160.757C376.556 155.568 383.474 155.568 383.475 160.757C383.475 164.433 380.664 169.19 379.15 171.568C387.799 171.136 395.366 167.46 400.556 167.46C407.258 167.46 407.475 173.081 401.421 181.081C390.178 195.568 366.609 219.352 366.609 234.055C366.609 235.568 367.042 236.217 367.907 236.217C373.695 236.217 391.636 219.82 405.756 201.483C406.457 200.553 407.168 199.615 407.885 198.672C408.33 198.071 408.77 197.468 409.204 196.865L409.258 196.869C410.406 195.364 411.566 193.848 412.729 192.325C419.216 183.46 421.811 180.433 432.838 165.73C433.703 169.622 439.973 168.325 443.865 163.784H445.595C437.379 175.46 427.216 188.649 418.567 200.324C405.378 217.838 394.135 232.109 394.135 235.784C394.135 236.433 394.352 236.433 394.784 236.433C402.568 236.432 426.135 216.108 439.973 196.865H440.192C450.96 181.017 467.698 167.027 483.731 167.027C489.785 167.027 493.245 170.271 493.245 175.676C493.245 177.622 492.596 180.433 491.299 183.46L504.488 165.946C505.353 169.838 511.623 168.541 515.515 164H517.245C509.029 175.676 498.866 188.865 490.218 200.541C477.029 218.054 465.786 232.324 465.785 236C465.785 236.648 466.001 236.649 466.434 236.649C474.072 236.649 496.909 217.078 510.836 198.162H510.833C510.863 198.123 510.893 198.084 510.923 198.045C511.159 197.724 511.392 197.402 511.623 197.081H511.663C525.935 178.491 536.204 167.443 540.022 166.595C540.887 166.379 541.32 166.379 541.969 166.379C546.509 166.379 549.536 169.838 549.536 175.46C549.536 178.919 548.239 183.027 545.645 187.352C552.996 178.271 560.131 170.92 565.969 167.893C567.915 167.028 569.861 166.379 571.807 166.379C577.644 166.379 581.536 170.487 581.536 176.325C581.536 182.812 577.644 191.46 570.941 200.324C557.968 217.622 546.293 232.109 546.293 235.784C546.293 236.433 546.509 236.433 546.941 236.433C554.293 236.433 574.185 217.838 589.32 196.865L591.914 197.081C577.86 216.541 556.022 238.812 546.941 238.812C543.482 238.811 541.104 235.784 541.104 231.46C541.104 223.46 550.833 210.054 561.86 195.784C569.644 186.054 574.617 176.973 574.617 172.433C574.617 170.055 573.536 168.974 571.158 168.974C570.077 168.974 568.563 169.406 567.05 170.055C551.699 178.271 523.374 224.324 512.131 239.676C512.779 237.514 504.348 237.298 501.32 238.595C523.59 204.001 541.536 180.866 541.536 171.136C541.536 169.406 541.103 168.757 540.671 168.757C538.126 168.758 528.512 178.947 514.275 197.081H514.434C499.731 217.621 475.515 238.595 466.65 238.595C463.191 238.595 460.813 235.784 460.812 231.46C460.812 227.784 462.974 222.811 467.515 215.676C454.326 229.297 441.785 239.243 436.38 239.243C429.461 239.243 428.597 230.163 428.597 227.136C428.597 221.702 430.399 215.203 433.521 208.518C419.414 224.706 402.177 238.595 395 238.595C391.541 238.595 389.162 235.567 389.162 231.243C389.162 228.21 390.675 224.34 393.162 219.9C381.896 231.597 371.96 238.595 367.475 238.595C362.502 238.595 358.826 234.054 358.826 228C358.826 221.297 362.934 212.216 371.15 200.541C382.177 184.973 395.583 173.946 395.583 171.784C395.583 171.352 395.583 171.136 394.718 171.136C393.204 171.136 387.15 173.73 377.637 173.73C374.61 178.704 367.475 188.866 359.907 198.379H359.898C345.819 217.516 324.539 238.811 315.659 238.812C312.2 238.812 309.821 235.784 309.821 231.46C309.821 228.217 311.55 223.892 315.01 218.055C302.686 230.595 291.443 239.243 286.47 239.243C279.551 239.243 278.686 230.163 278.686 227.136C278.686 205.514 307.227 167.027 333.821 167.027C339.875 167.027 343.334 170.271 343.334 175.893C343.334 177.19 343.118 178.487 342.686 180C356.091 162.054 379.01 131.136 385.929 121.622C387.226 125.298 394.578 122.487 398.902 116.865L399.767 117.73ZM335.118 169.838C330.361 169.838 323.659 173.298 318.037 178.703C310.686 186.054 302.47 196.649 295.983 207.676C288.848 219.351 284.523 229.298 284.523 234.703C284.523 236.433 285.172 237.081 286.253 237.081C291.658 237.081 308.524 223.027 322.578 206.595C326.037 202.054 329.496 197.298 333.172 192.541L335.767 188.865C339.226 183.46 340.956 178.92 340.956 175.893C340.956 171.784 339.01 169.838 335.118 169.838ZM485.245 169.838C480.488 169.838 473.786 173.298 468.164 178.703C460.813 186.054 452.596 196.649 446.109 207.676C438.974 219.351 434.65 229.298 434.65 234.703C434.65 236.433 435.299 237.081 436.38 237.081C446.974 237.081 491.082 191.677 491.083 175.893C491.083 171.785 489.137 169.838 485.245 169.838ZM245.769 176.541C239.498 176.541 233.877 176.757 230.85 176.757C230.201 176.973 229.552 176.974 228.688 176.974C230.201 178.271 230.85 180.433 230.85 183.46C230.85 186.487 229.985 189.947 228.472 193.406C234.742 187.785 240.58 182.379 246.201 176.541H245.769ZM317.769 105.622C311.282 105.622 285.985 138.703 252.688 174.162C257.444 174.162 262.201 173.946 266.525 173.946C267.606 173.73 269.12 173.73 270.634 173.73C292.255 143.677 317.119 113.623 318.201 106.487C318.417 105.622 318.201 105.622 317.769 105.622ZM446.459 140.865C448.405 136.973 452.081 134.162 454.676 134.595C457.919 134.811 458.784 138.271 456.838 142.379C454.892 146.271 451.432 148.866 448.621 148.649C445.594 148.433 444.729 144.757 446.459 140.865Z" fill="#0002AA"/>
</svg>
